STARTFONT 2.1
COMMENT Exported by Fony v1.4.7
FONT elpaulo20
SIZE 20 75 75
FONTBOUNDINGBOX 18 19 0 -4
STARTPROPERTIES 6
COPYRIGHT "Public domain font.  Share and enjoy."
RESOLUTION_X 75
RESOLUTION_Y 75
FONT_ASCENT 16
FONT_DESCENT 4
DEFAULT_CHAR 0
ENDPROPERTIES
CHARS 256
STARTCHAR 000
ENCODING 0
SWIDTH 720 0
DWIDTH 10 0
BBX 8 13 1 0
BITMAP
E7
81
81
00
00
81
81
81
00
00
81
81
E7
ENDCHAR
STARTCHAR 001
ENCODING 1
SWIDTH 1296 0
DWIDTH 18 0
BBX 14 14 1 0
BITMAP
0700
1D80
32B8
6280
4280
C29C
C280
C280
C29C
4280
6280
32B8
1D80
0700
ENDCHAR
STARTCHAR 002
ENCODING 2
SWIDTH 1296 0
DWIDTH 18 0
BBX 14 14 1 0
BITMAP
1550
3FF8
5554
4004
4034
7F34
8884
82B4
84B4
C984
84B4
82B4
8884
7F78
ENDCHAR
STARTCHAR 003
ENCODING 3
SWIDTH 1296 0
DWIDTH 18 0
BBX 14 14 1 0
BITMAP
800C
C008
8018
8010
C430
8E20
8A20
DB60
91C0
9080
D000
8000
9248
FFFC
ENDCHAR
STARTCHAR 004
ENCODING 4
SWIDTH 1296 0
DWIDTH 18 0
BBX 14 14 1 0
BITMAP
01E0
03C0
0780
0704
070C
071C
0FFC
1FF8
3BF0
7700
EE00
DC00
F800
7000
ENDCHAR
STARTCHAR 005
ENCODING 5
SWIDTH 1296 0
DWIDTH 18 0
BBX 14 14 1 0
BITMAP
7FF8
C00C
8304
8784
8784
8784
8784
8304
8304
8004
8304
8304
C00C
7FF8
ENDCHAR
STARTCHAR 006
ENCODING 6
SWIDTH 1296 0
DWIDTH 18 0
BBX 14 14 1 0
BITMAP
3C00
66F0
4200
42F0
5A00
5AF0
5A00
5A00
DB40
BD18
BD24
BD20
C324
7E18
ENDCHAR
STARTCHAR 007
ENCODING 7
SWIDTH 1296 0
DWIDTH 18 0
BBX 14 8 1 3
BITMAP
FFF0
FF90
FF1C
FE14
FC14
F81C
F010
FFF0
ENDCHAR
STARTCHAR 008
ENCODING 8
SWIDTH 1296 0
DWIDTH 18 0
BBX 14 14 1 0
BITMAP
7FF8
C00C
8784
8784
8004
8F84
8F84
8784
8784
8784
8FC4
8FC4
C00C
7FF8
ENDCHAR
STARTCHAR 009
ENCODING 9
SWIDTH 0 0
DWIDTH 0 0
BBX 0 0 0 0
BITMAP
ENDCHAR
STARTCHAR 010
ENCODING 10
SWIDTH 1152 0
DWIDTH 16 0
BBX 8 16 4 -1
BITMAP
80
C0
E0
F0
F8
FC
FE
FF
FF
FE
FC
F8
F0
E0
C0
80
ENDCHAR
STARTCHAR 011
ENCODING 11
SWIDTH 1152 0
DWIDTH 16 0
BBX 8 16 4 -1
BITMAP
01
03
07
0F
1F
3F
7F
FF
FF
7F
3F
1F
0F
07
03
01
ENDCHAR
STARTCHAR 012
ENCODING 12
SWIDTH 1152 0
DWIDTH 16 0
BBX 16 8 0 3
BITMAP
0180
03C0
07E0
0FF0
1FF8
3FFC
7FFE
FFFF
ENDCHAR
STARTCHAR 013
ENCODING 13
SWIDTH 1152 0
DWIDTH 16 0
BBX 16 8 0 3
BITMAP
FFFF
7FFE
3FFC
1FF8
0FF0
07E0
03C0
0180
ENDCHAR
STARTCHAR 014
ENCODING 14
SWIDTH 1152 0
DWIDTH 16 0
BBX 12 14 2 0
BITMAP
1F80
3FC0
70E0
6060
6060
6060
FFF0
FFF0
FFF0
F9F0
F0F0
F9F0
FFF0
FFF0
ENDCHAR
STARTCHAR 015
ENCODING 15
SWIDTH 1152 0
DWIDTH 16 0
BBX 14 14 1 0
BITMAP
7FF8
FFFC
E01C
C00C
C00C
C00C
C00C
C00C
C00C
C00C
C00C
E01C
FFFC
7FF8
ENDCHAR
STARTCHAR 016
ENCODING 16
SWIDTH 1152 0
DWIDTH 16 0
BBX 14 14 1 0
BITMAP
7FF8
FFFC
E01C
C03C
C07C
C0EC
F1CC
FB8C
DF0C
CE0C
C40C
E01C
FFFC
7FF8
ENDCHAR
STARTCHAR 017
ENCODING 17
SWIDTH 864 0
DWIDTH 12 0
BBX 8 2 2 0
BITMAP
DB
DB
ENDCHAR
STARTCHAR 018
ENCODING 18
SWIDTH 1152 0
DWIDTH 16 0
BBX 14 14 1 -1
BITMAP
0300
0300
0780
0780
0CC0
0CC0
1CE0
1CE0
3CF0
3FF0
7FF8
7CF8
FCFC
FFFC
ENDCHAR
STARTCHAR 019
ENCODING 19
SWIDTH 1152 0
DWIDTH 16 0
BBX 14 14 1 -1
BITMAP
0780
1860
2790
4FC8
4CC8
81C4
8384
8304
8304
4008
6308
2310
1860
0780
ENDCHAR
STARTCHAR 020
ENCODING 20
SWIDTH 1152 0
DWIDTH 16 0
BBX 14 14 1 -1
BITMAP
0780
1860
2310
4308
4008
8704
8704
8304
8304
4308
6788
2790
1860
0780
ENDCHAR
STARTCHAR 021
ENCODING 21
SWIDTH 0 0
DWIDTH 0 0
BBX 0 0 0 0
BITMAP
ENDCHAR
STARTCHAR 022
ENCODING 22
SWIDTH 0 0
DWIDTH 0 0
BBX 0 0 0 0
BITMAP
ENDCHAR
STARTCHAR 023
ENCODING 23
SWIDTH 0 0
DWIDTH 0 0
BBX 0 0 0 0
BITMAP
ENDCHAR
STARTCHAR 024
ENCODING 24
SWIDTH 0 0
DWIDTH 0 0
BBX 0 0 0 0
BITMAP
ENDCHAR
STARTCHAR 025
ENCODING 25
SWIDTH 0 0
DWIDTH 0 0
BBX 0 0 0 0
BITMAP
ENDCHAR
STARTCHAR 026
ENCODING 26
SWIDTH 0 0
DWIDTH 0 0
BBX 0 0 0 0
BITMAP
ENDCHAR
STARTCHAR 027
ENCODING 27
SWIDTH 0 0
DWIDTH 0 0
BBX 0 0 0 0
BITMAP
ENDCHAR
STARTCHAR 028
ENCODING 28
SWIDTH 0 0
DWIDTH 0 0
BBX 0 0 0 0
BITMAP
ENDCHAR
STARTCHAR 029
ENCODING 29
SWIDTH 0 0
DWIDTH 0 0
BBX 0 0 0 0
BITMAP
ENDCHAR
STARTCHAR 030
ENCODING 30
SWIDTH 0 0
DWIDTH 0 0
BBX 0 0 0 0
BITMAP
ENDCHAR
STARTCHAR 031
ENCODING 31
SWIDTH 0 0
DWIDTH 0 0
BBX 0 0 0 0
BITMAP
ENDCHAR
STARTCHAR 032
ENCODING 32
SWIDTH 360 0
DWIDTH 5 0
BBX 0 0 0 0
BITMAP
ENDCHAR
STARTCHAR 033
ENCODING 33
SWIDTH 432 0
DWIDTH 6 0
BBX 2 13 2 0
BITMAP
C0
C0
C0
C0
C0
C0
C0
C0
C0
C0
00
C0
C0
ENDCHAR
STARTCHAR 034
ENCODING 34
SWIDTH 720 0
DWIDTH 10 0
BBX 6 4 2 9
BITMAP
CC
CC
CC
48
ENDCHAR
STARTCHAR 035
ENCODING 35
SWIDTH 792 0
DWIDTH 11 0
BBX 9 11 1 1
BITMAP
1B00
1B00
1B00
7F80
3600
3600
3600
FF00
6C00
6C00
6C00
ENDCHAR
STARTCHAR 036
ENCODING 36
SWIDTH 720 0
DWIDTH 10 0
BBX 8 13 1 0
BITMAP
18
7E
DB
D8
D8
D8
7E
1B
1B
1B
DB
7E
18
ENDCHAR
STARTCHAR 037
ENCODING 37
SWIDTH 792 0
DWIDTH 11 0
BBX 9 12 1 0
BITMAP
7300
DB00
DE00
7600
0C00
0C00
1800
1800
3700
3D80
6D80
6700
ENDCHAR
STARTCHAR 038
ENCODING 38
SWIDTH 792 0
DWIDTH 11 0
BBX 9 13 1 0
BITMAP
3800
6C00
6C00
6C00
7800
3000
7000
D800
CD80
C700
C600
EF00
7980
ENDCHAR
STARTCHAR 039
ENCODING 39
SWIDTH 432 0
DWIDTH 6 0
BBX 2 5 2 8
BITMAP
C0
C0
C0
C0
80
ENDCHAR
STARTCHAR 040
ENCODING 40
SWIDTH 504 0
DWIDTH 7 0
BBX 5 13 1 0
BITMAP
18
30
60
60
C0
C0
C0
C0
C0
60
60
30
18
ENDCHAR
STARTCHAR 041
ENCODING 41
SWIDTH 504 0
DWIDTH 7 0
BBX 5 13 1 0
BITMAP
C0
60
30
30
18
18
18
18
18
30
30
60
C0
ENDCHAR
STARTCHAR 042
ENCODING 42
SWIDTH 720 0
DWIDTH 10 0
BBX 8 7 1 3
BITMAP
66
66
3C
FF
3C
66
66
ENDCHAR
STARTCHAR 043
ENCODING 43
SWIDTH 720 0
DWIDTH 10 0
BBX 8 8 1 3
BITMAP
18
18
18
FF
FF
18
18
18
ENDCHAR
STARTCHAR 044
ENCODING 44
SWIDTH 504 0
DWIDTH 7 0
BBX 3 4 2 -1
BITMAP
60
60
60
C0
ENDCHAR
STARTCHAR 045
ENCODING 45
SWIDTH 720 0
DWIDTH 10 0
BBX 8 2 1 6
BITMAP
FF
FF
ENDCHAR
STARTCHAR 046
ENCODING 46
SWIDTH 432 0
DWIDTH 6 0
BBX 2 3 2 0
BITMAP
C0
C0
C0
ENDCHAR
STARTCHAR 047
ENCODING 47
SWIDTH 648 0
DWIDTH 9 0
BBX 7 12 1 0
BITMAP
06
06
0C
0C
18
18
30
30
60
60
C0
C0
ENDCHAR
STARTCHAR 048
ENCODING 48
SWIDTH 720 0
DWIDTH 10 0
BBX 8 13 1 0
BITMAP
3C
7E
E7
C3
C3
C3
C3
C3
C3
C3
E7
7E
3C
ENDCHAR
STARTCHAR 049
ENCODING 49
SWIDTH 720 0
DWIDTH 10 0
BBX 4 13 3 0
BITMAP
30
70
F0
F0
30
30
30
30
30
30
30
30
30
ENDCHAR
STARTCHAR 050
ENCODING 50
SWIDTH 720 0
DWIDTH 10 0
BBX 8 13 1 0
BITMAP
7E
FF
C3
C3
03
07
0E
1C
38
70
E0
FF
FF
ENDCHAR
STARTCHAR 051
ENCODING 51
SWIDTH 720 0
DWIDTH 10 0
BBX 8 13 1 0
BITMAP
7E
FF
C3
C3
03
0E
0F
03
03
C3
C3
FF
7E
ENDCHAR
STARTCHAR 052
ENCODING 52
SWIDTH 720 0
DWIDTH 10 0
BBX 8 13 1 0
BITMAP
03
07
0F
1F
3B
73
E3
C3
FF
FF
03
03
03
ENDCHAR
STARTCHAR 053
ENCODING 53
SWIDTH 720 0
DWIDTH 10 0
BBX 8 13 1 0
BITMAP
FF
FF
C0
C0
FE
FF
C3
03
03
03
C3
FF
7E
ENDCHAR
STARTCHAR 054
ENCODING 54
SWIDTH 720 0
DWIDTH 10 0
BBX 8 13 1 0
BITMAP
7E
FF
C3
C0
FE
FF
C3
C3
C3
C3
C3
FF
7E
ENDCHAR
STARTCHAR 055
ENCODING 55
SWIDTH 720 0
DWIDTH 10 0
BBX 8 13 1 0
BITMAP
FF
FF
C3
03
07
06
0E
0C
1C
18
38
30
70
ENDCHAR
STARTCHAR 056
ENCODING 56
SWIDTH 720 0
DWIDTH 10 0
BBX 8 13 1 0
BITMAP
7E
FF
C3
C3
C3
7E
FF
C3
C3
C3
C3
FF
7E
ENDCHAR
STARTCHAR 057
ENCODING 57
SWIDTH 720 0
DWIDTH 10 0
BBX 8 13 1 0
BITMAP
7E
FF
C3
C3
C3
C3
FF
7F
03
03
C3
FF
7E
ENDCHAR
STARTCHAR 058
ENCODING 58
SWIDTH 432 0
DWIDTH 6 0
BBX 2 10 2 0
BITMAP
C0
C0
C0
00
00
00
00
C0
C0
C0
ENDCHAR
STARTCHAR 059
ENCODING 59
SWIDTH 432 0
DWIDTH 6 0
BBX 3 11 1 -1
BITMAP
60
60
60
00
00
00
00
60
60
60
C0
ENDCHAR
STARTCHAR 060
ENCODING 60
SWIDTH 648 0
DWIDTH 9 0
BBX 7 13 1 0
BITMAP
02
06
0C
18
30
60
C0
60
30
18
0C
06
02
ENDCHAR
STARTCHAR 061
ENCODING 61
SWIDTH 720 0
DWIDTH 10 0
BBX 8 7 1 3
BITMAP
FF
FF
00
00
00
FF
FF
ENDCHAR
STARTCHAR 062
ENCODING 62
SWIDTH 648 0
DWIDTH 9 0
BBX 7 13 1 0
BITMAP
80
C0
60
30
18
0C
06
0C
18
30
60
C0
80
ENDCHAR
STARTCHAR 063
ENCODING 63
SWIDTH 720 0
DWIDTH 10 0
BBX 8 13 1 0
BITMAP
3C
7E
E7
C3
C3
07
0E
1C
18
18
00
18
18
ENDCHAR
STARTCHAR 064
ENCODING 64
SWIDTH 720 0
DWIDTH 10 0
BBX 8 13 1 0
BITMAP
3C
66
C3
CF
DF
DB
DB
DB
DE
CC
C0
63
3E
ENDCHAR
STARTCHAR 065
ENCODING 65
SWIDTH 720 0
DWIDTH 10 0
BBX 8 13 1 0
BITMAP
18
3C
66
66
C3
C3
C3
FF
C3
C3
C3
C3
C3
ENDCHAR
STARTCHAR 066
ENCODING 66
SWIDTH 720 0
DWIDTH 10 0
BBX 8 13 1 0
BITMAP
F8
CC
C6
C6
C6
CC
FC
C6
C3
C3
C3
C6
FC
ENDCHAR
STARTCHAR 067
ENCODING 67
SWIDTH 720 0
DWIDTH 10 0
BBX 8 13 1 0
BITMAP
3C
66
C3
C0
C0
C0
C0
C0
C0
C0
C3
66
3C
ENDCHAR
STARTCHAR 068
ENCODING 68
SWIDTH 720 0
DWIDTH 10 0
BBX 8 13 1 0
BITMAP
FC
C6
C3
C3
C3
C3
C3
C3
C3
C3
C3
C6
FC
ENDCHAR
STARTCHAR 069
ENCODING 69
SWIDTH 720 0
DWIDTH 10 0
BBX 8 13 1 0
BITMAP
FF
C0
C0
C0
C0
C0
FC
C0
C0
C0
C0
C0
FF
ENDCHAR
STARTCHAR 070
ENCODING 70
SWIDTH 720 0
DWIDTH 10 0
BBX 8 13 1 0
BITMAP
FF
C0
C0
C0
C0
C0
FC
C0
C0
C0
C0
C0
C0
ENDCHAR
STARTCHAR 071
ENCODING 71
SWIDTH 720 0
DWIDTH 10 0
BBX 8 13 1 0
BITMAP
3C
66
C3
C0
C0
C0
CF
C3
C3
C3
C3
67
3D
ENDCHAR
STARTCHAR 072
ENCODING 72
SWIDTH 720 0
DWIDTH 10 0
BBX 8 13 1 0
BITMAP
C3
C3
C3
C3
C3
C3
FF
C3
C3
C3
C3
C3
C3
ENDCHAR
STARTCHAR 073
ENCODING 73
SWIDTH 720 0
DWIDTH 10 0
BBX 8 13 1 0
BITMAP
FF
18
18
18
18
18
18
18
18
18
18
18
FF
ENDCHAR
STARTCHAR 074
ENCODING 74
SWIDTH 720 0
DWIDTH 10 0
BBX 9 13 1 0
BITMAP
1F80
0600
0600
0600
0600
0600
0600
0600
0600
C600
C600
6C00
3800
ENDCHAR
STARTCHAR 075
ENCODING 75
SWIDTH 720 0
DWIDTH 10 0
BBX 8 13 1 0
BITMAP
C3
C3
C6
C6
CC
CC
F8
CC
CC
C6
C6
C3
C3
ENDCHAR
STARTCHAR 076
ENCODING 76
SWIDTH 720 0
DWIDTH 10 0
BBX 8 13 1 0
BITMAP
C0
C0
C0
C0
C0
C0
C0
C0
C0
C0
C0
C0
FF
ENDCHAR
STARTCHAR 077
ENCODING 77
SWIDTH 720 0
DWIDTH 10 0
BBX 8 13 1 0
BITMAP
C3
C3
E7
E7
FF
DB
DB
DB
DB
C3
C3
C3
C3
ENDCHAR
STARTCHAR 078
ENCODING 78
SWIDTH 720 0
DWIDTH 10 0
BBX 8 13 1 0
BITMAP
C3
E3
E3
F3
F3
DB
DB
CF
CF
C7
C7
C3
C3
ENDCHAR
STARTCHAR 079
ENCODING 79
SWIDTH 720 0
DWIDTH 10 0
BBX 8 13 1 0
BITMAP
3C
66
C3
C3
C3
C3
C3
C3
C3
C3
C3
66
3C
ENDCHAR
STARTCHAR 080
ENCODING 80
SWIDTH 720 0
DWIDTH 10 0
BBX 8 13 1 0
BITMAP
FC
C6
C3
C3
C3
C3
C6
FC
C0
C0
C0
C0
C0
ENDCHAR
STARTCHAR 081
ENCODING 81
SWIDTH 720 0
DWIDTH 10 0
BBX 8 14 1 -1
BITMAP
3C
66
C3
C3
C3
C3
C3
C3
C3
DB
CF
66
3E
03
ENDCHAR
STARTCHAR 082
ENCODING 82
SWIDTH 720 0
DWIDTH 10 0
BBX 8 13 1 0
BITMAP
FC
C6
C3
C3
C3
C3
C6
FC
CC
C6
C6
C3
C3
ENDCHAR
STARTCHAR 083
ENCODING 83
SWIDTH 720 0
DWIDTH 10 0
BBX 8 13 1 0
BITMAP
3C
66
C3
C0
C0
60
3C
06
03
03
C3
66
3C
ENDCHAR
STARTCHAR 084
ENCODING 84
SWIDTH 720 0
DWIDTH 10 0
BBX 8 13 1 0
BITMAP
FF
18
18
18
18
18
18
18
18
18
18
18
18
ENDCHAR
STARTCHAR 085
ENCODING 85
SWIDTH 720 0
DWIDTH 10 0
BBX 8 13 1 0
BITMAP
C3
C3
C3
C3
C3
C3
C3
C3
C3
C3
C3
66
3C
ENDCHAR
STARTCHAR 086
ENCODING 86
SWIDTH 720 0
DWIDTH 10 0
BBX 8 13 1 0
BITMAP
C3
C3
C3
C3
66
66
66
3C
3C
3C
18
18
18
ENDCHAR
STARTCHAR 087
ENCODING 87
SWIDTH 720 0
DWIDTH 10 0
BBX 8 13 1 0
BITMAP
C3
C3
C3
C3
C3
DB
DB
DB
DB
E7
E7
C3
C3
ENDCHAR
STARTCHAR 088
ENCODING 88
SWIDTH 720 0
DWIDTH 10 0
BBX 8 13 1 0
BITMAP
C3
C3
66
66
3C
3C
18
3C
3C
66
66
C3
C3
ENDCHAR
STARTCHAR 089
ENCODING 89
SWIDTH 720 0
DWIDTH 10 0
BBX 8 13 1 0
BITMAP
C3
C3
66
66
3C
3C
18
18
18
18
18
18
18
ENDCHAR
STARTCHAR 090
ENCODING 90
SWIDTH 720 0
DWIDTH 10 0
BBX 8 13 1 0
BITMAP
FF
03
03
06
0C
0C
18
30
30
60
C0
C0
FF
ENDCHAR
STARTCHAR 091
ENCODING 91
SWIDTH 576 0
DWIDTH 8 0
BBX 6 13 1 0
BITMAP
FC
C0
C0
C0
C0
C0
C0
C0
C0
C0
C0
C0
FC
ENDCHAR
STARTCHAR 092
ENCODING 92
SWIDTH 648 0
DWIDTH 9 0
BBX 7 12 1 0
BITMAP
C0
C0
60
60
30
30
18
18
0C
0C
06
06
ENDCHAR
STARTCHAR 093
ENCODING 93
SWIDTH 576 0
DWIDTH 8 0
BBX 6 13 1 0
BITMAP
FC
0C
0C
0C
0C
0C
0C
0C
0C
0C
0C
0C
FC
ENDCHAR
STARTCHAR 094
ENCODING 94
SWIDTH 720 0
DWIDTH 10 0
BBX 8 4 1 9
BITMAP
18
3C
66
C3
ENDCHAR
STARTCHAR 095
ENCODING 95
SWIDTH 720 0
DWIDTH 10 0
BBX 8 1 1 -1
BITMAP
FF
ENDCHAR
STARTCHAR 096
ENCODING 96
SWIDTH 576 0
DWIDTH 8 0
BBX 4 3 2 10
BITMAP
C0
60
30
ENDCHAR
STARTCHAR 097
ENCODING 97
SWIDTH 720 0
DWIDTH 10 0
BBX 8 8 1 0
BITMAP
3E
63
03
7F
C3
C3
C3
7D
ENDCHAR
STARTCHAR 098
ENCODING 98
SWIDTH 720 0
DWIDTH 10 0
BBX 8 13 1 0
BITMAP
C0
C0
C0
C0
C0
DC
E6
C3
C3
C3
C3
E6
DC
ENDCHAR
STARTCHAR 099
ENCODING 99
SWIDTH 720 0
DWIDTH 10 0
BBX 8 8 1 0
BITMAP
3E
63
C0
C0
C0
C0
63
3E
ENDCHAR
STARTCHAR 100
ENCODING 100
SWIDTH 720 0
DWIDTH 10 0
BBX 8 13 1 0
BITMAP
03
03
03
03
03
3B
67
C3
C3
C3
C3
67
3B
ENDCHAR
STARTCHAR 101
ENCODING 101
SWIDTH 720 0
DWIDTH 10 0
BBX 8 8 1 0
BITMAP
3C
66
C3
FF
C0
C0
63
3E
ENDCHAR
STARTCHAR 102
ENCODING 102
SWIDTH 720 0
DWIDTH 10 0
BBX 8 13 1 0
BITMAP
1E
33
33
30
30
FC
30
30
30
30
30
30
30
ENDCHAR
STARTCHAR 103
ENCODING 103
SWIDTH 720 0
DWIDTH 10 0
BBX 8 12 1 -4
BITMAP
7D
C7
C6
C6
C6
7C
C0
7E
C3
C3
C3
7E
ENDCHAR
STARTCHAR 104
ENCODING 104
SWIDTH 720 0
DWIDTH 10 0
BBX 8 13 1 0
BITMAP
C0
C0
C0
C0
C0
DC
E6
C3
C3
C3
C3
C3
C3
ENDCHAR
STARTCHAR 105
ENCODING 105
SWIDTH 720 0
DWIDTH 10 0
BBX 8 11 1 0
BITMAP
18
18
00
78
18
18
18
18
18
18
FF
ENDCHAR
STARTCHAR 106
ENCODING 106
SWIDTH 720 0
DWIDTH 10 0
BBX 7 15 2 -4
BITMAP
06
06
00
1E
06
06
06
06
06
06
06
C6
C6
C6
7C
ENDCHAR
STARTCHAR 107
ENCODING 107
SWIDTH 720 0
DWIDTH 10 0
BBX 8 13 1 0
BITMAP
C0
C0
C0
C0
C0
C6
CC
D8
F0
F8
CC
C6
C3
ENDCHAR
STARTCHAR 108
ENCODING 108
SWIDTH 720 0
DWIDTH 10 0
BBX 8 13 1 0
BITMAP
78
18
18
18
18
18
18
18
18
18
18
18
FF
ENDCHAR
STARTCHAR 109
ENCODING 109
SWIDTH 720 0
DWIDTH 10 0
BBX 8 8 1 0
BITMAP
B6
FF
DB
DB
DB
DB
DB
DB
ENDCHAR
STARTCHAR 110
ENCODING 110
SWIDTH 720 0
DWIDTH 10 0
BBX 8 8 1 0
BITMAP
DC
E6
C3
C3
C3
C3
C3
C3
ENDCHAR
STARTCHAR 111
ENCODING 111
SWIDTH 720 0
DWIDTH 10 0
BBX 8 8 1 0
BITMAP
3C
66
C3
C3
C3
C3
66
3C
ENDCHAR
STARTCHAR 112
ENCODING 112
SWIDTH 720 0
DWIDTH 10 0
BBX 8 12 1 -4
BITMAP
DC
E6
C3
C3
C3
C3
E6
DC
C0
C0
C0
C0
ENDCHAR
STARTCHAR 113
ENCODING 113
SWIDTH 720 0
DWIDTH 10 0
BBX 8 12 1 -4
BITMAP
3B
67
C3
C3
C3
C3
67
3B
03
03
03
03
ENDCHAR
STARTCHAR 114
ENCODING 114
SWIDTH 720 0
DWIDTH 10 0
BBX 8 8 1 0
BITMAP
DE
73
60
60
60
60
60
60
ENDCHAR
STARTCHAR 115
ENCODING 115
SWIDTH 720 0
DWIDTH 10 0
BBX 8 8 1 0
BITMAP
7E
C3
C0
7E
03
03
C3
7E
ENDCHAR
STARTCHAR 116
ENCODING 116
SWIDTH 720 0
DWIDTH 10 0
BBX 8 11 1 0
BITMAP
30
30
30
FC
30
30
30
30
30
33
1E
ENDCHAR
STARTCHAR 117
ENCODING 117
SWIDTH 720 0
DWIDTH 10 0
BBX 8 8 1 0
BITMAP
C3
C3
C3
C3
C3
C3
67
3B
ENDCHAR
STARTCHAR 118
ENCODING 118
SWIDTH 720 0
DWIDTH 10 0
BBX 8 8 1 0
BITMAP
C3
C3
66
66
3C
3C
18
18
ENDCHAR
STARTCHAR 119
ENCODING 119
SWIDTH 720 0
DWIDTH 10 0
BBX 8 8 1 0
BITMAP
C3
C3
C3
DB
DB
DB
FF
66
ENDCHAR
STARTCHAR 120
ENCODING 120
SWIDTH 720 0
DWIDTH 10 0
BBX 8 8 1 0
BITMAP
C3
66
3C
18
18
3C
66
C3
ENDCHAR
STARTCHAR 121
ENCODING 121
SWIDTH 720 0
DWIDTH 10 0
BBX 8 12 1 -4
BITMAP
C3
C3
C3
C3
C3
C3
67
3B
03
C3
66
3C
ENDCHAR
STARTCHAR 122
ENCODING 122
SWIDTH 720 0
DWIDTH 10 0
BBX 7 8 1 0
BITMAP
FE
06
0C
18
30
60
C0
FE
ENDCHAR
STARTCHAR 123
ENCODING 123
SWIDTH 720 0
DWIDTH 10 0
BBX 8 13 1 0
BITMAP
0F
18
18
18
18
18
F0
18
18
18
18
18
0F
ENDCHAR
STARTCHAR 124
ENCODING 124
SWIDTH 576 0
DWIDTH 8 0
BBX 2 13 3 0
BITMAP
C0
C0
C0
C0
C0
C0
C0
C0
C0
C0
C0
C0
C0
ENDCHAR
STARTCHAR 125
ENCODING 125
SWIDTH 720 0
DWIDTH 10 0
BBX 8 13 1 0
BITMAP
F0
18
18
18
18
18
0F
18
18
18
18
18
F0
ENDCHAR
STARTCHAR 126
ENCODING 126
SWIDTH 720 0
DWIDTH 10 0
BBX 8 3 1 10
BITMAP
73
DB
CE
ENDCHAR
STARTCHAR 127
ENCODING 127
SWIDTH 0 0
DWIDTH 0 0
BBX 0 0 0 0
BITMAP
ENDCHAR
STARTCHAR 128
ENCODING 128
SWIDTH 0 0
DWIDTH 0 0
BBX 0 0 0 0
BITMAP
ENDCHAR
STARTCHAR 129
ENCODING 129
SWIDTH 0 0
DWIDTH 0 0
BBX 0 0 0 0
BITMAP
ENDCHAR
STARTCHAR 130
ENCODING 130
SWIDTH 0 0
DWIDTH 0 0
BBX 0 0 0 0
BITMAP
ENDCHAR
STARTCHAR 131
ENCODING 131
SWIDTH 0 0
DWIDTH 0 0
BBX 0 0 0 0
BITMAP
ENDCHAR
STARTCHAR 132
ENCODING 132
SWIDTH 0 0
DWIDTH 0 0
BBX 0 0 0 0
BITMAP
ENDCHAR
STARTCHAR 133
ENCODING 133
SWIDTH 0 0
DWIDTH 0 0
BBX 0 0 0 0
BITMAP
ENDCHAR
STARTCHAR 134
ENCODING 134
SWIDTH 0 0
DWIDTH 0 0
BBX 0 0 0 0
BITMAP
ENDCHAR
STARTCHAR 135
ENCODING 135
SWIDTH 0 0
DWIDTH 0 0
BBX 0 0 0 0
BITMAP
ENDCHAR
STARTCHAR 136
ENCODING 136
SWIDTH 0 0
DWIDTH 0 0
BBX 0 0 0 0
BITMAP
ENDCHAR
STARTCHAR 137
ENCODING 137
SWIDTH 0 0
DWIDTH 0 0
BBX 0 0 0 0
BITMAP
ENDCHAR
STARTCHAR 138
ENCODING 138
SWIDTH 0 0
DWIDTH 0 0
BBX 0 0 0 0
BITMAP
ENDCHAR
STARTCHAR 139
ENCODING 139
SWIDTH 0 0
DWIDTH 0 0
BBX 0 0 0 0
BITMAP
ENDCHAR
STARTCHAR 140
ENCODING 140
SWIDTH 0 0
DWIDTH 0 0
BBX 0 0 0 0
BITMAP
ENDCHAR
STARTCHAR 141
ENCODING 141
SWIDTH 0 0
DWIDTH 0 0
BBX 0 0 0 0
BITMAP
ENDCHAR
STARTCHAR 142
ENCODING 142
SWIDTH 0 0
DWIDTH 0 0
BBX 0 0 0 0
BITMAP
ENDCHAR
STARTCHAR 143
ENCODING 143
SWIDTH 0 0
DWIDTH 0 0
BBX 0 0 0 0
BITMAP
ENDCHAR
STARTCHAR 144
ENCODING 144
SWIDTH 0 0
DWIDTH 0 0
BBX 0 0 0 0
BITMAP
ENDCHAR
STARTCHAR 145
ENCODING 145
SWIDTH 0 0
DWIDTH 0 0
BBX 0 0 0 0
BITMAP
ENDCHAR
STARTCHAR 146
ENCODING 146
SWIDTH 0 0
DWIDTH 0 0
BBX 0 0 0 0
BITMAP
ENDCHAR
STARTCHAR 147
ENCODING 147
SWIDTH 0 0
DWIDTH 0 0
BBX 0 0 0 0
BITMAP
ENDCHAR
STARTCHAR 148
ENCODING 148
SWIDTH 0 0
DWIDTH 0 0
BBX 0 0 0 0
BITMAP
ENDCHAR
STARTCHAR 149
ENCODING 149
SWIDTH 0 0
DWIDTH 0 0
BBX 0 0 0 0
BITMAP
ENDCHAR
STARTCHAR 150
ENCODING 150
SWIDTH 0 0
DWIDTH 0 0
BBX 0 0 0 0
BITMAP
ENDCHAR
STARTCHAR 151
ENCODING 151
SWIDTH 0 0
DWIDTH 0 0
BBX 0 0 0 0
BITMAP
ENDCHAR
STARTCHAR 152
ENCODING 152
SWIDTH 0 0
DWIDTH 0 0
BBX 0 0 0 0
BITMAP
ENDCHAR
STARTCHAR 153
ENCODING 153
SWIDTH 0 0
DWIDTH 0 0
BBX 0 0 0 0
BITMAP
ENDCHAR
STARTCHAR 154
ENCODING 154
SWIDTH 0 0
DWIDTH 0 0
BBX 0 0 0 0
BITMAP
ENDCHAR
STARTCHAR 155
ENCODING 155
SWIDTH 0 0
DWIDTH 0 0
BBX 0 0 0 0
BITMAP
ENDCHAR
STARTCHAR 156
ENCODING 156
SWIDTH 0 0
DWIDTH 0 0
BBX 0 0 0 0
BITMAP
ENDCHAR
STARTCHAR 157
ENCODING 157
SWIDTH 0 0
DWIDTH 0 0
BBX 0 0 0 0
BITMAP
ENDCHAR
STARTCHAR 158
ENCODING 158
SWIDTH 0 0
DWIDTH 0 0
BBX 0 0 0 0
BITMAP
ENDCHAR
STARTCHAR 159
ENCODING 159
SWIDTH 0 0
DWIDTH 0 0
BBX 0 0 0 0
BITMAP
ENDCHAR
STARTCHAR 160
ENCODING 160
SWIDTH 0 0
DWIDTH 0 0
BBX 0 0 0 0
BITMAP
ENDCHAR
STARTCHAR 161
ENCODING 161
SWIDTH 432 0
DWIDTH 6 0
BBX 2 13 2 0
BITMAP
C0
C0
00
C0
C0
C0
C0
C0
C0
C0
C0
C0
C0
ENDCHAR
STARTCHAR 162
ENCODING 162
SWIDTH 648 0
DWIDTH 9 0
BBX 7 12 1 0
BITMAP
18
18
3C
66
C2
C0
C0
C2
66
3C
18
18
ENDCHAR
STARTCHAR 163
ENCODING 163
SWIDTH 720 0
DWIDTH 10 0
BBX 9 12 1 0
BITMAP
1E00
3300
3300
3000
3000
FC00
3000
3000
3000
F800
AD80
E700
ENDCHAR
STARTCHAR 164
ENCODING 164
SWIDTH 792 0
DWIDTH 11 0
BBX 9 9 1 1
BITMAP
8080
DD80
7F00
6300
6300
6300
7F00
DD80
8080
ENDCHAR
STARTCHAR 165
ENCODING 165
SWIDTH 720 0
DWIDTH 10 0
BBX 8 11 1 0
BITMAP
81
C3
66
3C
7E
18
7E
18
18
18
18
ENDCHAR
STARTCHAR 166
ENCODING 166
SWIDTH 432 0
DWIDTH 6 0
BBX 2 13 2 0
BITMAP
C0
C0
C0
C0
C0
00
00
00
C0
C0
C0
C0
C0
ENDCHAR
STARTCHAR 167
ENCODING 167
SWIDTH 720 0
DWIDTH 10 0
BBX 8 13 1 0
BITMAP
3C
66
C6
60
78
CC
66
33
1E
06
63
66
3C
ENDCHAR
STARTCHAR 168
ENCODING 168
SWIDTH 720 0
DWIDTH 10 0
BBX 8 15 1 0
BITMAP
66
00
FF
C0
C0
C0
C0
C0
FC
C0
C0
C0
C0
C0
FF
ENDCHAR
STARTCHAR 169
ENCODING 169
SWIDTH 720 0
DWIDTH 10 0
BBX 8 11 1 0
BITMAP
3C
66
C3
BD
A5
A1
A5
BD
C3
66
3C
ENDCHAR
STARTCHAR 170
ENCODING 170
SWIDTH 720 0
DWIDTH 10 0
BBX 8 9 1 4
BITMAP
3E
43
03
7F
C3
C3
7D
00
FF
ENDCHAR
STARTCHAR 171
ENCODING 171
SWIDTH 792 0
DWIDTH 11 0
BBX 9 11 1 0
BITMAP
0480
0D80
1B00
3600
6C00
D800
6C00
3600
1B00
0D80
0480
ENDCHAR
STARTCHAR 172
ENCODING 172
SWIDTH 720 0
DWIDTH 10 0
BBX 8 4 1 4
BITMAP
FF
FF
03
03
ENDCHAR
STARTCHAR 173
ENCODING 173
SWIDTH 576 0
DWIDTH 8 0
BBX 6 1 1 6
BITMAP
FC
ENDCHAR
STARTCHAR 174
ENCODING 174
SWIDTH 720 0
DWIDTH 10 0
BBX 8 11 1 0
BITMAP
3C
66
C3
BD
A5
BD
A9
AD
C3
66
3C
ENDCHAR
STARTCHAR 175
ENCODING 175
SWIDTH 720 0
DWIDTH 10 0
BBX 8 1 1 13
BITMAP
FF
ENDCHAR
STARTCHAR 176
ENCODING 176
SWIDTH 576 0
DWIDTH 8 0
BBX 6 6 1 7
BITMAP
30
78
CC
CC
78
30
ENDCHAR
STARTCHAR 177
ENCODING 177
SWIDTH 720 0
DWIDTH 10 0
BBX 8 7 1 2
BITMAP
18
18
FF
18
18
00
FF
ENDCHAR
STARTCHAR 178
ENCODING 178
SWIDTH 648 0
DWIDTH 9 0
BBX 5 7 2 6
BITMAP
70
D8
18
30
60
C0
F8
ENDCHAR
STARTCHAR 179
ENCODING 179
SWIDTH 648 0
DWIDTH 9 0
BBX 5 7 2 6
BITMAP
70
D8
18
30
18
D8
70
ENDCHAR
STARTCHAR 180
ENCODING 180
SWIDTH 720 0
DWIDTH 10 0
BBX 4 3 3 10
BITMAP
30
60
C0
ENDCHAR
STARTCHAR 181
ENCODING 181
SWIDTH 720 0
DWIDTH 10 0
BBX 7 10 1 -3
BITMAP
C6
C6
C6
C6
C6
EE
FA
C0
C0
C0
ENDCHAR
STARTCHAR 182
ENCODING 182
SWIDTH 720 0
DWIDTH 10 0
BBX 8 13 1 0
BITMAP
7F
FF
FB
FB
FB
7B
1B
1B
1B
1B
1B
1B
1B
ENDCHAR
STARTCHAR 183
ENCODING 183
SWIDTH 720 0
DWIDTH 10 0
BBX 3 3 4 5
BITMAP
E0
E0
E0
ENDCHAR
STARTCHAR 184
ENCODING 184
SWIDTH 720 0
DWIDTH 10 0
BBX 8 11 1 0
BITMAP
66
66
00
3C
66
C3
FF
C0
C0
63
3E
ENDCHAR
STARTCHAR 185
ENCODING 185
SWIDTH 720 0
DWIDTH 10 0
BBX 4 7 2 6
BITMAP
60
E0
60
60
60
60
F0
ENDCHAR
STARTCHAR 186
ENCODING 186
SWIDTH 720 0
DWIDTH 10 0
BBX 7 9 1 4
BITMAP
38
6C
C6
C6
C6
6C
38
00
FE
ENDCHAR
STARTCHAR 187
ENCODING 187
SWIDTH 720 0
DWIDTH 10 0
BBX 9 11 1 0
BITMAP
9000
D800
6C00
3600
1B00
0D80
1B00
3600
6C00
D800
9000
ENDCHAR
STARTCHAR 188
ENCODING 188
SWIDTH 720 0
DWIDTH 10 0
BBX 8 12 1 1
BITMAP
40
C0
41
42
E4
08
12
26
4A
9E
02
02
ENDCHAR
STARTCHAR 189
ENCODING 189
SWIDTH 720 0
DWIDTH 10 0
BBX 8 12 1 1
BITMAP
40
C0
41
42
E4
08
16
29
41
82
04
0F
ENDCHAR
STARTCHAR 190
ENCODING 190
SWIDTH 720 0
DWIDTH 10 0
BBX 8 12 1 1
BITMAP
E0
10
61
12
E4
08
12
26
4A
9F
02
02
ENDCHAR
STARTCHAR 191
ENCODING 191
SWIDTH 720 0
DWIDTH 10 0
BBX 8 13 1 0
BITMAP
18
18
00
18
18
18
30
60
C3
C3
C3
66
3C
ENDCHAR
STARTCHAR 192
ENCODING 192
SWIDTH 720 0
DWIDTH 10 0
BBX 8 13 1 0
BITMAP
18
3C
66
66
C3
C3
C3
FF
C3
C3
C3
C3
C3
ENDCHAR
STARTCHAR 193
ENCODING 193
SWIDTH 720 0
DWIDTH 10 0
BBX 8 13 1 0
BITMAP
FF
C0
C0
C0
C0
C0
FC
C6
C3
C3
C3
C6
FC
ENDCHAR
STARTCHAR 194
ENCODING 194
SWIDTH 720 0
DWIDTH 10 0
BBX 8 13 1 0
BITMAP
F8
CC
C6
C6
C6
CC
FC
C6
C3
C3
C3
C6
FC
ENDCHAR
STARTCHAR 195
ENCODING 195
SWIDTH 720 0
DWIDTH 10 0
BBX 8 13 1 0
BITMAP
FF
C0
C0
C0
C0
C0
C0
C0
C0
C0
C0
C0
C0
ENDCHAR
STARTCHAR 196
ENCODING 196
SWIDTH 720 0
DWIDTH 10 0
BBX 8 13 1 0
BITMAP
0E
1E
16
36
36
36
66
66
66
FF
C3
C3
C3
ENDCHAR
STARTCHAR 197
ENCODING 197
SWIDTH 720 0
DWIDTH 10 0
BBX 8 13 1 0
BITMAP
FF
C0
C0
C0
C0
C0
FC
C0
C0
C0
C0
C0
FF
ENDCHAR
STARTCHAR 198
ENCODING 198
SWIDTH 1152 0
DWIDTH 16 0
BBX 14 13 1 0
BITMAP
C30C
C30C
6318
6318
3330
3330
1FE0
3330
3330
6318
6318
C30C
C30C
ENDCHAR
STARTCHAR 199
ENCODING 199
SWIDTH 720 0
DWIDTH 10 0
BBX 8 13 1 0
BITMAP
3C
66
43
03
03
06
3C
06
03
03
83
C6
7C
ENDCHAR
STARTCHAR 200
ENCODING 200
SWIDTH 720 0
DWIDTH 10 0
BBX 8 13 1 0
BITMAP
C3
C7
C7
CF
CF
DB
DB
F3
F3
E3
E3
C3
C3
ENDCHAR
STARTCHAR 201
ENCODING 201
SWIDTH 720 0
DWIDTH 10 0
BBX 8 15 1 0
BITMAP
3C
00
C3
C7
C7
CF
CF
DB
DB
F3
F3
E3
E3
C3
C3
ENDCHAR
STARTCHAR 202
ENCODING 202
SWIDTH 720 0
DWIDTH 10 0
BBX 8 13 1 0
BITMAP
C3
C3
C6
C6
CC
CC
F8
CC
CC
C6
C6
C3
C3
ENDCHAR
STARTCHAR 203
ENCODING 203
SWIDTH 720 0
DWIDTH 10 0
BBX 8 13 1 0
BITMAP
1F
1F
13
13
33
33
23
23
63
63
43
C3
C3
ENDCHAR
STARTCHAR 204
ENCODING 204
SWIDTH 720 0
DWIDTH 10 0
BBX 8 13 1 0
BITMAP
C3
C3
E7
E7
FF
DB
DB
DB
DB
C3
C3
C3
C3
ENDCHAR
STARTCHAR 205
ENCODING 205
SWIDTH 720 0
DWIDTH 10 0
BBX 8 13 1 0
BITMAP
C3
C3
C3
C3
C3
C3
FF
C3
C3
C3
C3
C3
C3
ENDCHAR
STARTCHAR 206
ENCODING 206
SWIDTH 720 0
DWIDTH 10 0
BBX 8 13 1 0
BITMAP
3C
66
C3
C3
C3
C3
C3
C3
C3
C3
C3
66
3C
ENDCHAR
STARTCHAR 207
ENCODING 207
SWIDTH 720 0
DWIDTH 10 0
BBX 8 13 1 0
BITMAP
FF
C3
C3
C3
C3
C3
C3
C3
C3
C3
C3
C3
C3
ENDCHAR
STARTCHAR 208
ENCODING 208
SWIDTH 720 0
DWIDTH 10 0
BBX 8 13 1 0
BITMAP
FC
C6
C3
C3
C3
C3
C6
FC
C0
C0
C0
C0
C0
ENDCHAR
STARTCHAR 209
ENCODING 209
SWIDTH 720 0
DWIDTH 10 0
BBX 8 13 1 0
BITMAP
3C
66
C3
C0
C0
C0
C0
C0
C0
C0
C3
66
3C
ENDCHAR
STARTCHAR 210
ENCODING 210
SWIDTH 720 0
DWIDTH 10 0
BBX 8 13 1 0
BITMAP
FF
18
18
18
18
18
18
18
18
18
18
18
18
ENDCHAR
STARTCHAR 211
ENCODING 211
SWIDTH 720 0
DWIDTH 10 0
BBX 8 13 1 0
BITMAP
C3
C3
66
66
3C
3C
18
18
30
30
20
60
40
ENDCHAR
STARTCHAR 212
ENCODING 212
SWIDTH 720 0
DWIDTH 10 0
BBX 8 13 1 0
BITMAP
18
18
3C
7E
DB
DB
DB
DB
DB
7E
3C
18
18
ENDCHAR
STARTCHAR 213
ENCODING 213
SWIDTH 720 0
DWIDTH 10 0
BBX 8 13 1 0
BITMAP
C3
C3
66
66
3C
3C
18
3C
3C
66
66
C3
C3
ENDCHAR
STARTCHAR 214
ENCODING 214
SWIDTH 720 0
DWIDTH 10 0
BBX 8 15 1 -2
BITMAP
C6
C6
C6
C6
C6
C6
C6
C6
C6
C6
C6
C6
FF
03
03
ENDCHAR
STARTCHAR 215
ENCODING 215
SWIDTH 648 0
DWIDTH 9 0
BBX 7 13 1 0
BITMAP
C6
C6
C6
C6
C6
C6
7E
06
06
06
06
06
06
ENDCHAR
STARTCHAR 216
ENCODING 216
SWIDTH 864 0
DWIDTH 12 0
BBX 10 13 1 0
BITMAP
CCC0
CCC0
CCC0
CCC0
CCC0
CCC0
CCC0
CCC0
CCC0
CCC0
CCC0
CCC0
FFC0
ENDCHAR
STARTCHAR 217
ENCODING 217
SWIDTH 936 0
DWIDTH 13 0
BBX 11 15 1 -2
BITMAP
CCC0
CCC0
CCC0
CCC0
CCC0
CCC0
CCC0
CCC0
CCC0
CCC0
CCC0
CCC0
FFE0
0060
0060
ENDCHAR
STARTCHAR 218
ENCODING 218
SWIDTH 720 0
DWIDTH 10 0
BBX 8 13 1 0
BITMAP
F0
F0
30
30
30
30
3C
36
33
33
33
36
3C
ENDCHAR
STARTCHAR 219
ENCODING 219
SWIDTH 792 0
DWIDTH 11 0
BBX 9 13 1 0
BITMAP
C180
C180
C180
C180
C180
C180
F180
D980
CD80
CD80
CD80
D980
F180
ENDCHAR
STARTCHAR 220
ENCODING 220
SWIDTH 720 0
DWIDTH 10 0
BBX 8 13 1 0
BITMAP
C0
C0
C0
C0
C0
C0
FC
C6
C3
C3
C3
C6
FC
ENDCHAR
STARTCHAR 221
ENCODING 221
SWIDTH 720 0
DWIDTH 10 0
BBX 8 13 1 0
BITMAP
3C
66
C3
03
03
03
1F
03
03
03
C3
66
3C
ENDCHAR
STARTCHAR 222
ENCODING 222
SWIDTH 792 0
DWIDTH 11 0
BBX 9 13 1 0
BITMAP
CF00
CF00
D980
D980
D980
D980
F980
F980
D980
D980
D980
CF00
CF00
ENDCHAR
STARTCHAR 223
ENCODING 223
SWIDTH 720 0
DWIDTH 10 0
BBX 8 13 1 0
BITMAP
3F
63
C3
C3
C3
C3
63
3F
33
63
63
C3
C3
ENDCHAR
STARTCHAR 224
ENCODING 224
SWIDTH 720 0
DWIDTH 10 0
BBX 8 8 1 0
BITMAP
3E
63
03
7F
C3
C3
C3
7D
ENDCHAR
STARTCHAR 225
ENCODING 225
SWIDTH 648 0
DWIDTH 9 0
BBX 7 8 1 0
BITMAP
FE
C0
C0
FC
C6
C6
C6
FC
ENDCHAR
STARTCHAR 226
ENCODING 226
SWIDTH 648 0
DWIDTH 9 0
BBX 7 8 1 0
BITMAP
FC
C6
C6
FC
C6
C6
C6
FC
ENDCHAR
STARTCHAR 227
ENCODING 227
SWIDTH 576 0
DWIDTH 8 0
BBX 6 8 1 0
BITMAP
FC
C0
C0
C0
C0
C0
C0
C0
ENDCHAR
STARTCHAR 228
ENCODING 228
SWIDTH 720 0
DWIDTH 10 0
BBX 8 10 1 -2
BITMAP
0E
1E
36
36
66
66
66
FF
C3
C3
ENDCHAR
STARTCHAR 229
ENCODING 229
SWIDTH 720 0
DWIDTH 10 0
BBX 8 8 1 0
BITMAP
3C
66
C3
FF
C0
C0
63
3E
ENDCHAR
STARTCHAR 230
ENCODING 230
SWIDTH 720 0
DWIDTH 10 0
BBX 8 8 1 0
BITMAP
99
DB
7E
3C
3C
7E
DB
99
ENDCHAR
STARTCHAR 231
ENCODING 231
SWIDTH 720 0
DWIDTH 10 0
BBX 8 8 1 0
BITMAP
3C
66
C3
0E
0E
C3
66
3C
ENDCHAR
STARTCHAR 232
ENCODING 232
SWIDTH 720 0
DWIDTH 10 0
BBX 8 8 1 0
BITMAP
C7
CF
CF
DB
DB
F3
F3
E3
ENDCHAR
STARTCHAR 233
ENCODING 233
SWIDTH 720 0
DWIDTH 10 0
BBX 8 10 1 0
BITMAP
3C
00
C7
CF
CF
DB
DB
F3
F3
E3
ENDCHAR
STARTCHAR 234
ENCODING 234
SWIDTH 648 0
DWIDTH 9 0
BBX 7 8 1 0
BITMAP
C6
CC
D8
F0
F8
CC
C6
C2
ENDCHAR
STARTCHAR 235
ENCODING 235
SWIDTH 720 0
DWIDTH 10 0
BBX 8 8 1 0
BITMAP
0F
1F
33
33
63
63
C3
C3
ENDCHAR
STARTCHAR 236
ENCODING 236
SWIDTH 720 0
DWIDTH 10 0
BBX 8 8 1 0
BITMAP
C3
E7
E7
DB
DB
C3
C3
C3
ENDCHAR
STARTCHAR 237
ENCODING 237
SWIDTH 720 0
DWIDTH 10 0
BBX 8 8 1 0
BITMAP
C3
C3
C3
C3
FF
C3
C3
C3
ENDCHAR
STARTCHAR 238
ENCODING 238
SWIDTH 720 0
DWIDTH 10 0
BBX 8 8 1 0
BITMAP
3C
66
C3
C3
C3
C3
66
3C
ENDCHAR
STARTCHAR 239
ENCODING 239
SWIDTH 648 0
DWIDTH 9 0
BBX 7 8 1 0
BITMAP
FE
C6
C6
C6
C6
C6
C6
C6
ENDCHAR
STARTCHAR 240
ENCODING 240
SWIDTH 720 0
DWIDTH 10 0
BBX 8 11 1 -3
BITMAP
FC
E6
C3
C3
C3
C3
E6
FC
C0
C0
C0
ENDCHAR
STARTCHAR 241
ENCODING 241
SWIDTH 720 0
DWIDTH 10 0
BBX 7 8 1 0
BITMAP
3C
66
C0
C0
C0
C0
66
3C
ENDCHAR
STARTCHAR 242
ENCODING 242
SWIDTH 720 0
DWIDTH 10 0
BBX 8 8 1 0
BITMAP
FF
18
18
18
18
18
18
18
ENDCHAR
STARTCHAR 243
ENCODING 243
SWIDTH 720 0
DWIDTH 10 0
BBX 8 11 1 -3
BITMAP
C3
C3
C3
C3
C3
67
3F
03
C3
66
3C
ENDCHAR
STARTCHAR 244
ENCODING 244
SWIDTH 720 0
DWIDTH 10 0
BBX 8 11 1 -3
BITMAP
3C
7E
DB
DB
DB
DB
7E
3C
18
18
18
ENDCHAR
STARTCHAR 245
ENCODING 245
SWIDTH 720 0
DWIDTH 10 0
BBX 8 8 1 0
BITMAP
C3
66
3C
18
18
3C
66
C3
ENDCHAR
STARTCHAR 246
ENCODING 246
SWIDTH 720 0
DWIDTH 10 0
BBX 8 10 1 -2
BITMAP
C6
C6
C6
C6
C6
C6
C6
FF
03
03
ENDCHAR
STARTCHAR 247
ENCODING 247
SWIDTH 720 0
DWIDTH 10 0
BBX 7 8 2 0
BITMAP
C6
C6
C6
C6
7E
36
06
06
ENDCHAR
STARTCHAR 248
ENCODING 248
SWIDTH 864 0
DWIDTH 12 0
BBX 10 8 1 0
BITMAP
CCC0
CCC0
CCC0
CCC0
CCC0
CCC0
CCC0
FFC0
ENDCHAR
STARTCHAR 249
ENCODING 249
SWIDTH 936 0
DWIDTH 13 0
BBX 11 10 1 -2
BITMAP
CCC0
CCC0
CCC0
CCC0
CCC0
CCC0
CCC0
FFE0
0060
0060
ENDCHAR
STARTCHAR 250
ENCODING 250
SWIDTH 720 0
DWIDTH 10 0
BBX 8 8 1 0
BITMAP
F0
30
30
3E
33
33
33
3E
ENDCHAR
STARTCHAR 251
ENCODING 251
SWIDTH 720 0
DWIDTH 10 0
BBX 8 8 1 0
BITMAP
C3
C3
C3
F3
DB
DB
DB
F3
ENDCHAR
STARTCHAR 252
ENCODING 252
SWIDTH 648 0
DWIDTH 9 0
BBX 7 8 1 0
BITMAP
C0
C0
C0
FC
C6
C6
C6
FC
ENDCHAR
STARTCHAR 253
ENCODING 253
SWIDTH 720 0
DWIDTH 10 0
BBX 8 8 1 0
BITMAP
3C
66
C3
0F
0F
C3
66
3C
ENDCHAR
STARTCHAR 254
ENCODING 254
SWIDTH 864 0
DWIDTH 12 0
BBX 10 8 1 0
BITMAP
C700
CD80
D8C0
D8C0
F8C0
D8C0
CD80
C700
ENDCHAR
STARTCHAR 255
ENCODING 255
SWIDTH 576 0
DWIDTH 8 0
BBX 6 8 1 0
BITMAP
7C
CC
CC
CC
7C
3C
6C
CC
ENDCHAR
ENDFONT
